<?xml version="1.0" standalone="no"?>
<!DOCTYPE svg PUBLIC "-//W3C//DTD SVG 20010904//EN"
 "http://www.w3.org/TR/2001/REC-SVG-20010904/DTD/svg10.dtd">
<svg version="1.0" xmlns="http://www.w3.org/2000/svg"
 width="366.000000pt" height="352.000000pt" viewBox="0 0 366.000000 352.000000"
 preserveAspectRatio="xMidYMid meet">

<g transform="translate(0.000000,352.000000) scale(0.100000,-0.100000)"
fill="#000000" stroke="none">
<path d="M590 2249 c-113 -33 -222 -64 -242 -70 l-38 -10 0 -74 c0 -41 1 -75
3 -75 2 0 107 30 233 66 241 70 301 78 364 52 140 -59 194 -237 109 -359 l-18
-26 58 -57 58 -57 31 48 c47 72 64 129 66 213 3 182 -104 326 -289 390 -32 11
-74 20 -94 19 -20 0 -128 -27 -241 -60z"/>
<path d="M1317 2214 c-11 -11 -8 -615 3 -674 21 -111 84 -198 182 -251 59 -32
69 -34 158 -34 77 0 104 4 143 22 74 34 131 87 168 156 l34 62 3 363 3 363
-73 -3 -73 -3 -5 -341 -5 -341 -28 -41 c-74 -113 -250 -113 -324 0 l-28 41 -5
341 -5 341 -70 3 c-39 1 -74 0 -78 -4z"/>
<path d="M2152 2213 c-7 -3 -19 -18 -27 -33 -13 -24 -15 -101 -15 -480 l0
-450 80 0 80 0 0 348 0 347 89 -92 c87 -92 89 -93 136 -93 47 0 49 1 136 93
l88 92 1 -347 0 -348 75 0 75 0 0 486 0 486 -57 -4 -58 -5 -129 -137 -130
-136 -141 140 c-141 139 -159 151 -203 133z"/>
<path d="M2970 1735 l0 -485 80 0 80 0 0 485 0 485 -80 0 -80 0 0 -485z"/>
<path d="M547 2013 c-4 -3 -7 -177 -7 -385 l0 -378 80 0 80 0 2 220 3 220 220
-220 220 -220 110 0 110 0 -365 367 c-201 202 -376 375 -390 385 -26 18 -52
23 -63 11z"/>
<path d="M2400 1546 c0 -35 4 -45 20 -49 17 -4 20 -14 20 -71 0 -59 -2 -66
-20 -66 -18 0 -20 -7 -20 -55 l0 -56 93 3 92 3 3 168 2 167 -95 0 -95 0 0 -44z"/>
</g>
</svg>
